# xmcd CD database file
#
# Track frame offsets:
#	150
#	4751
#	26501
#	46637
#	64678
#	86104
#	102399
#	118390
#	131352
#	159722
#	179597
#	215834
#	225216
#	242646
#	262216
#
# Disc length: 3578 seconds
#
# Revision: 1
# Processed by: cddbd v1.5.1PL0 Copyright (c) Steve Scherf et al.
# Submitted via: CDex 1.51
#
DISCID=cf0df80f
DTITLE=ferenczi györgy és a herfli davidson - hamvadó cigarettavég
DYEAR=1900
DGENRE=
TTITLE0=prológus
TTITLE1=öreg leszek
TTITLE2=hamvadó cigarettavég
TTITLE3=minden nõ akit ismerek
TTITLE4=ballada
TTITLE5=hé-hé
TTITLE6=nõ vagy
TTITLE7=soul
TTITLE8=villa negra-egyveleg
TTITLE9=engedj be
TTITLE10=cold sweat egyveleg
TTITLE11=rudy's feelgood
TTITLE12=hard to handle
TTITLE13=utolsó laza funky
TTITLE14=epilógus
EXTD=
EXTT0=
EXTT1=
EXTT2=
EXTT3=
EXTT4=
EXTT5=
EXTT6=
EXTT7=
EXTT8=
EXTT9=
EXTT10=
EXTT11=
EXTT12=
EXTT13=
EXTT14=
PLAYORDER=
